HIERARCHY
ROOT Hips
{
	OFFSET 0.000000 0.000000 0.000000
	CHANNELS 6 Xposition Yposition Zposition Zrotation Yrotation Xrotation 
	JOINT LHipJoint
	{
		OFFSET 0.000000 0.000000 0.000000
		CHANNELS 3 Zrotation Yrotation Xrotation
		JOINT LeftUpLeg
		{
			OFFSET 1.363060 -1.794630 0.839290
			CHANNELS 3 Zrotation Yrotation Xrotation
			JOINT LeftLeg
			{
				OFFSET 2.448110 -6.726130 0.000000
				CHANNELS 3 Zrotation Yrotation Xrotation
				JOINT LeftFoot
				{
					OFFSET 2.562200 -7.039590 0.000000
					CHANNELS 3 Zrotation Yrotation Xrotation
					JOINT LeftToeBase
					{
						OFFSET 0.157640 -0.433110 2.322550
						CHANNELS 3 Zrotation Yrotation Xrotation
						End Site
						{
							OFFSET 0.000000 0.000000 0.000000
						}
					}
				}
			}
		}
	}
	JOINT RHipJoint
	{
		OFFSET 0.000000 0.000000 0.000000
		CHANNELS 3 Zrotation Yrotation Xrotation
		JOINT RightUpLeg
		{
			OFFSET -1.305520 -1.794630 0.839290
			CHANNELS 3 Zrotation Yrotation Xrotation
			JOINT RightLeg
			{
				OFFSET -2.542530 -6.985550 0.000000
				CHANNELS 3 Zrotation Yrotation Xrotation
				JOINT RightFoot
				{
					OFFSET -2.568260 -7.056230 0.000000
					CHANNELS 3 Zrotation Yrotation Xrotation
					JOINT RightToeBase
					{
						OFFSET -0.164730 -0.452590 2.363150
						CHANNELS 3 Zrotation Yrotation Xrotation
						End Site
						{
							OFFSET 0.000000 0.000000 0.000000
						}
					}
				}
			}
		}
	}
	JOINT LowerBack
	{
		OFFSET 0.000000 0.000000 0.000000
		CHANNELS 3 Zrotation Yrotation Xrotation
		JOINT Spine
		{
			OFFSET 0.028270 2.035590 -0.193380
			CHANNELS 3 Zrotation Yrotation Xrotation
			JOINT Spine1
			{
				OFFSET 0.056720 2.048850 -0.042750
				CHANNELS 3 Zrotation Yrotation Xrotation
				JOINT Neck
				{
					OFFSET 0.000000 0.000000 0.000000
					CHANNELS 3 Zrotation Yrotation Xrotation
					JOINT Neck1
					{
						OFFSET -0.054170 1.746240 0.172020
						CHANNELS 3 Zrotation Yrotation Xrotation
						JOINT Head
						{
							OFFSET 0.104070 1.761360 -0.123970
							CHANNELS 3 Zrotation Yrotation Xrotation
							End Site
							{
								OFFSET 0.000000 0.000000 0.000000
							}
						}
					}
				}
				JOINT LeftShoulder
				{
					OFFSET 0.000000 0.000000 0.000000
					CHANNELS 3 Zrotation Yrotation Xrotation
					JOINT LeftArm
					{
						OFFSET 3.362410 1.200890 -0.311210
						CHANNELS 3 Zrotation Yrotation Xrotation
						JOINT LeftForeArm
						{
							OFFSET 4.983000 -0.000000 -0.000000
							CHANNELS 3 Zrotation Yrotation Xrotation
							JOINT LeftHand
							{
								OFFSET 3.483560 -0.000000 -0.000000
								CHANNELS 3 Zrotation Yrotation Xrotation
								JOINT LeftFingerBase
								{
									OFFSET 0.000000 0.000000 0.000000
									CHANNELS 3 Zrotation Yrotation Xrotation
									JOINT LeftHandIndex1
									{
										OFFSET 0.715260 -0.000000 -0.000000
										CHANNELS 3 Zrotation Yrotation Xrotation
										End Site
										{
											OFFSET 0.000000 0.000000 0.000000
										}
									}
								}
								JOINT LThumb
								{
									OFFSET 0.000000 0.000000 0.000000
									CHANNELS 3 Zrotation Yrotation Xrotation
									End Site
									{
										OFFSET 0.000000 0.000000 0.000000
									}
								}
							}
						}
					}
				}
				JOINT RightShoulder
				{
					OFFSET 0.000000 0.000000 0.000000
					CHANNELS 3 Zrotation Yrotation Xrotation
					JOINT RightArm
					{
						OFFSET -3.136600 1.374050 -0.404650
						CHANNELS 3 Zrotation Yrotation Xrotation
						JOINT RightForeArm
						{
							OFFSET -5.241900 -0.000000 -0.000000
							CHANNELS 3 Zrotation Yrotation Xrotation
							JOINT RightHand
							{
								OFFSET -3.444170 -0.000000 -0.000000
								CHANNELS 3 Zrotation Yrotation Xrotation
								JOINT RightFingerBase
								{
									OFFSET 0.000000 0.000000 0.000000
									CHANNELS 3 Zrotation Yrotation Xrotation
									JOINT RightHandIndex1
									{
										OFFSET -0.622530 -0.000000 -0.000000
										CHANNELS 3 Zrotation Yrotation Xrotation
										End Site
										{
											OFFSET 0.000000 0.000000 0.000000
										}
									}
								}
								JOINT RThumb
								{
									OFFSET 0.000000 0.000000 0.000000
									CHANNELS 3 Zrotation Yrotation Xrotation
									End Site
									{
										OFFSET 0.000000 0.000000 0.000000
									}
								}
							}
						}
					}
				}
			}
		}
	}
}
MOTION
Frames: 7
Frame Time: 0.008333
6.307008 17.059702 1.601411 -174.520533 -85.090118 -177.732033 -10.649161 0.903578 0.635307 -7.373380 4.005076 -35.538002 -0.707421 2.650344 49.666580 2.917683 16.070609 -14.003050 -1.661100 -0.000000 -4.043100 7.750335 -1.535262 1.437319 16.079127 4.982012 0.008562 2.630732 0.604106 12.743285 -2.637227 -7.361689 -19.185293 1.725600 -0.000000 -1.711800 -0.143403 -1.361644 -2.680870 -0.806564 -1.475785 -3.949078 -6.117259 -1.609582 -1.871960 10.428496 -0.414420 -4.912381 -3.990462 -0.335042 0.728743 0.000000 0.000000 0.000000 -3.456785 0.524093 4.300915 -68.053603 14.934684 -0.740672 -3.754712 -5.245013 -0.044028 14.085712 18.524810 2.302522 -0.058199 0.108459 0.000000 0.000000 0.000000 0.000000 0.000000 0.000000 0.000000 17.396618 5.391671 1.220098 64.853416 33.887225 38.082293 1.141483 49.705807 -0.011993 -5.621700 9.974447 -0.515442 0.101979 -0.333188 -0.000000 0.000000 0.000000 0.000000 0.000000 0.000000 0.000000 
6.079710 17.099594 1.558486 173.928934 -85.088079 -166.199106 -10.680912 0.612294 0.733763 -8.545404 3.808088 -35.395685 -0.879795 2.261516 45.821953 2.931328 15.940990 -13.423330 -1.466600 0.000000 -4.403101 7.710848 -1.809584 1.352196 15.008837 4.291784 1.606463 2.618436 0.655166 10.741326 -2.365288 -6.697109 -17.695032 1.351399 0.000000 -3.737400 -1.495725 -1.140138 -2.766661 -1.013718 -1.145791 -3.949986 -5.878763 -1.282806 -1.816095 9.931912 -0.485297 -4.997459 -3.763097 -0.318544 0.706023 0.000000 0.000000 0.000000 -3.773516 1.309334 4.259866 -67.485649 15.742047 1.573004 -4.059152 -3.610893 -0.042630 11.384388 18.041523 1.815493 -0.082078 0.088667 -0.000000 0.000000 0.000000 0.000000 0.000000 0.000000 0.000000 15.950265 5.572772 1.164939 64.148877 35.987339 39.072716 1.053044 51.956022 -0.014718 -6.029262 10.145165 -0.563218 0.108941 -0.352527 -0.000000 0.000000 0.000000 0.000000 0.000000 0.000000 0.000000 
5.850675 17.134830 1.520495 167.517490 -84.874819 -159.819846 -10.512547 0.410470 0.805169 -9.543408 3.806090 -35.153624 -1.056930 1.863839 41.821132 2.906049 15.617739 -12.732979 -1.228000 -0.000000 -4.911800 7.910065 -2.067789 1.277436 14.033313 3.460787 3.058787 2.604932 0.672149 8.964872 -2.036976 -5.793195 -16.048348 0.972900 -0.000000 -6.346800 -2.437696 -0.845961 -2.828267 -1.152846 -0.775330 -3.946433 -5.643719 -0.910502 -1.746206 9.395129 -0.566170 -5.098651 -3.538543 -0.301790 0.678890 0.000000 0.000000 0.000000 -4.202940 2.194496 4.178651 -66.818897 16.141421 4.609080 -4.350125 -1.485229 -0.038683 8.220700 16.554249 1.206963 -0.102991 0.063493 -0.000000 0.000000 0.000000 0.000000 0.000000 0.000000 0.000000 14.465240 5.715366 1.122178 63.124691 38.069350 39.703169 0.963381 54.252079 -0.017839 -6.427470 10.165434 -0.602709 0.115534 -0.370205 -0.000000 0.000000 0.000000 0.000000 0.000000 0.000000 0.000000 
5.619641 17.165240 1.488266 164.493596 -84.420331 -156.835843 -10.293905 0.312041 0.872051 -10.408854 4.016054 -34.862843 -1.262912 1.495175 37.682127 2.838938 15.110470 -11.937309 -0.954700 0.000000 -5.633100 8.174579 -2.283136 1.184950 13.093455 2.533304 4.383659 2.593884 0.671960 7.453982 -1.662416 -4.628835 -14.267754 0.618300 -0.000000 -9.570900 -3.123671 -0.484984 -2.868980 -1.253162 -0.358924 -3.948894 -5.422352 -0.490396 -1.697926 8.827667 -0.636829 -5.221166 -3.316090 -0.284787 0.647406 0.000000 0.000000 0.000000 -4.820395 3.162084 4.063382 -65.950870 17.332034 8.661088 -4.588407 -1.482954 -0.034340 4.899284 15.102839 0.663143 -0.118711 0.033067 -0.000000 0.000000 0.000000 0.000000 0.000000 0.000000 0.000000 12.965970 5.890781 1.112484 61.794847 40.118822 39.984064 0.882854 56.565171 -0.020996 -6.779330 10.087738 -0.632202 0.122083 -0.386836 -0.000000 0.000000 0.000000 0.000000 0.000000 0.000000 0.000000 
5.386300 17.190832 1.462291 163.636073 -83.785796 -156.009090 -10.099589 0.274787 0.938852 -11.150399 4.414996 -34.563289 -1.494724 1.149554 33.461093 2.727824 14.425928 -11.041432 -0.659700 -0.000000 -6.634300 8.419794 -2.469578 1.073136 12.187242 1.557430 5.573839 2.594118 0.654013 6.209810 -1.260030 -3.239424 -12.390513 0.318200 0.000000 -13.312300 -3.603377 -0.089985 -2.892554 -1.325451 0.073560 -3.965880 -5.241480 -0.054613 -1.705844 8.245314 -0.677278 -5.359622 -3.093248 -0.267510 0.614043 0.000000 0.000000 0.000000 -5.697625 4.189559 3.903791 -64.468323 20.182334 13.687985 -4.710135 -5.504182 -0.032477 1.824319 14.506836 0.247638 -0.127351 -0.004016 -0.000000 0.000000 0.000000 0.000000 0.000000 0.000000 0.000000 11.479071 6.131831 1.146193 60.183283 42.106163 39.922108 0.814576 58.870156 -0.023941 -7.058163 9.970281 -0.651992 0.128293 -0.402910 -0.000000 0.000000 0.000000 0.000000 0.000000 0.000000 0.000000 
5.150536 17.211701 1.442548 164.084747 -83.053336 -156.484765 -9.950189 0.263680 1.010192 -11.774144 4.970255 -34.273587 -1.741056 0.812174 29.225744 2.572747 13.575880 -10.052330 -0.358599 0.000000 -7.974900 8.627489 -2.648812 0.955045 11.321103 0.554936 6.625689 2.608896 0.614091 5.227635 -0.846735 -1.664976 -10.446189 0.097300 0.000000 -17.523401 -3.918466 0.342415 -2.921830 -1.371247 0.529399 -3.987517 -5.072483 0.404442 -1.718952 7.644090 -0.675141 -5.502733 -2.876213 -0.250395 0.580359 0.000000 0.000000 0.000000 -6.712006 5.380411 3.675899 -62.537432 22.864116 18.853776 -4.704037 -9.570893 -0.030452 -0.650047 13.203407 -0.061374 -0.128009 -0.043758 -0.000000 0.000000 0.000000 0.000000 0.000000 0.000000 0.000000 9.995407 6.376395 1.181864 58.259331 44.003778 39.492654 0.738837 61.133370 -0.026982 -7.254662 9.866656 -0.664492 0.131530 -0.419002 -0.000000 0.000000 0.000000 0.000000 0.000000 0.000000 0.000000 
4.911963 17.228125 1.428989 165.433468 -82.263539 -157.840120 -9.850723 0.258221 1.085157 -12.273551 5.664118 -34.042607 -1.993078 0.480213 25.060960 2.376743 12.572009 -8.990271 -0.069500 0.000001 -9.690101 8.786568 -2.824493 0.848226 10.535200 -0.394879 7.537806 2.636878 0.556225 4.494107 -0.448070 0.006214 -8.489162 -0.024400 0.000000 -21.859500 -4.073449 0.798629 -2.971933 -1.388758 0.995531 -4.014116 -4.909046 0.873282 -1.731873 7.033665 -0.625943 -5.650807 -2.666697 -0.233600 0.546292 0.000000 0.000000 0.000000 -7.775819 6.735504 3.386906 -60.311517 25.238649 23.679370 -4.591793 -13.352717 -0.028071 -2.339756 11.379100 -0.223293 -0.121697 -0.082129 -0.000000 0.000000 0.000000 0.000000 0.000000 0.000000 0.000000 8.524089 6.621033 1.203587 56.038728 45.778018 38.704641 0.654651 63.325250 -0.030128 -7.370947 9.819780 -0.673009 0.131159 -0.435695 -0.000000 0.000000 0.000000 0.000000 0.000000 0.000000 0.000000 
